<svg xmlns="http://www.w3.org/2000/svg" viewBox="0 0 22.32 19.44">
  <defs>
    <style>
      .cls-1 {
        isolation: isolate;
      }

      .cls-2 {
        fill: #fff;
        fill-rule: evenodd;
      }
    </style>
  </defs>
  <title>basket</title>
  <g id="Forma_1" data-name="Forma 1" class="cls-1">
    <g id="Forma_1-2" data-name="Forma 1">
      <path class="cls-2" d="M22.13,6.6H20.71l-0.07-.09L14.78,0.69a1.55,1.55,0,0,0-2.18,0l0,0a1.52,1.52,0,0,0,0,2.16L15.14,5.4a0.46,0.46,0,0,0,.65,0,0.46,0.46,0,0,0,0-.65L13.24,2.22a0.61,0.61,0,0,1,0-.86l0,0a0.62,0.62,0,0,1,.87,0l5.3,5.27h-13l3.76-3.74a1.52,1.52,0,0,0,0-2.16h0A1.55,1.55,0,0,0,8,.69l-6,5.91H0.67A0.42,0.42,0,0,0,.24,7V9.41a0.42,0.42,0,0,0,.43.42H5.83v6.09a0.43,0.43,0,0,0,.85,0V9.83H8.4v6.09a0.43,0.43,0,0,0,.85,0V9.83H11v6.09a0.43,0.43,0,0,0,.85,0V9.83h1.72v6.09a0.43,0.43,0,0,0,.85,0V9.83h1.72v6.09a0.43,0.43,0,0,0,.85,0V9.83h2.85l-1.35,7a2.5,2.5,0,0,1-2.45,2H6.78a2.5,2.5,0,0,1-2.45-2l-1-5.22a0.43,0.43,0,0,0-.84.16l1,5.22a3.35,3.35,0,0,0,3.29,2.7H16A3.35,3.35,0,0,0,19.31,17l1.38-7.15h1.44a0.42,0.42,0,0,0,.43-0.42V7A0.42,0.42,0,0,0,22.13,6.6ZM8.68,1.34a0.62,0.62,0,0,1,.87,0h0a0.61,0.61,0,0,1,0,.87L5.15,6.6H3.37ZM21.71,9H1.09V7.45H21.71V9Z" transform="translate(-0.24 -0.24)"/>
    </g>
  </g>
</svg>
